<svg width="40" height="43" viewBox="0 0 40 43" fill="none" xmlns="http://www.w3.org/2000/svg">
<path fill-rule="evenodd" clip-rule="evenodd" d="M0 21.0811C0 9.43832 8.95431 0 20 0C31.0457 0 40 9.43832 40 21.0811C40 32.7238 31.0457 42.1622 20 42.1622C8.95431 42.1622 0 32.7238 0 21.0811ZM16.34 20.4788V22.7676H19.9439C19.7987 23.7498 18.8546 25.6476 16.34 25.6476C14.1704 25.6476 12.4003 23.7594 12.4003 21.4324C12.4003 19.1055 14.1704 17.2172 16.34 17.2172C17.5746 17.2172 18.4007 17.7703 18.8727 18.2472L20.5975 16.502C19.49 15.4148 18.0557 14.7568 16.34 14.7568C12.8269 14.7568 9.98557 17.7417 9.98557 21.4324C9.98557 25.1231 12.8269 28.1081 16.34 28.1081C20.0075 28.1081 22.4403 25.3997 22.4403 21.585C22.4403 21.1463 22.3949 20.8125 22.3404 20.4788H16.34ZM28.1412 20.4788H29.9567V22.3861H28.1412V24.2934H26.3256V22.3861H24.51V20.4788H26.3256V18.5714H28.1412V20.4788Z" fill="#222222"/>
</svg>
