<svg width="40" height="42" viewBox="0 0 40 42" fill="none" xmlns="http://www.w3.org/2000/svg">
<path fill-rule="evenodd" clip-rule="evenodd" d="M20 41.0526C31.0457 41.0526 40 31.8627 40 20.5263C40 9.18995 31.0457 0 20 0C8.95431 0 0 9.18995 0 20.5263C0 31.8627 8.95431 41.0526 20 41.0526ZM16.3333 29.9342C16.8198 29.9342 17.0421 29.7121 17.3107 29.4436L17.3333 29.4211L19.7356 27.0237L24.7333 30.8133C25.6531 31.3341 26.3169 31.0644 26.546 29.9369L29.8268 14.0695C30.1627 12.6874 29.3135 12.0605 28.4336 12.4705L9.1686 20.0945C7.85358 20.6358 7.86125 21.3887 8.9289 21.7242L13.8727 23.3079L25.3182 15.897C25.8585 15.5608 26.3544 15.7416 25.9474 16.1123L16.6738 24.7013L16.6737 24.7012L16.6737 24.7014L16.6733 24.7017L16.6736 24.7019L16.3333 29.9342Z" fill="#222222"/>
</svg>
